<svg width="19" height="20" viewBox="0 0 19 20" fill="none" xmlns="http://www.w3.org/2000/svg">
<path d="M2.42955 9.50637C2.42685 10.5394 2.66821 11.5585 3.13397 12.4806C3.6862 13.5855 4.53517 14.5149 5.58577 15.1646C6.63637 15.8143 7.84711 16.1587 9.08238 16.1592C10.1154 16.1619 11.1345 15.9205 12.0566 15.4548L16.5179 16.9419L15.0308 12.4806C15.4965 11.5585 15.7379 10.5394 15.7352 9.50637C15.7347 8.2711 15.3903 7.06036 14.7406 6.00976C14.0909 4.95916 13.1615 4.11019 12.0566 3.55796C11.1345 3.0922 10.1154 2.85084 9.08238 2.85354H8.69103C7.05964 2.94354 5.51878 3.63212 4.36345 4.78744C3.20813 5.94276 2.51955 7.48363 2.42955 9.11502V9.50637Z" stroke="#A25CBF" stroke-width="1.56537" stroke-linecap="round" stroke-linejoin="round"/>
</svg>
