<svg width="22" height="22" viewBox="0 0 22 22" fill="none" xmlns="http://www.w3.org/2000/svg">
<path d="M2.75003 11.9167H3.6667V18.3333C3.6667 19.3444 4.48895 20.1667 5.50003 20.1667H16.5C17.5111 20.1667 18.3334 19.3444 18.3334 18.3333V11.9167H19.25C19.4313 11.9166 19.6085 11.8628 19.7592 11.7621C19.9099 11.6614 20.0274 11.5182 20.0967 11.3508C20.1661 11.1833 20.1843 10.999 20.1489 10.8212C20.1135 10.6434 20.0263 10.4801 19.8981 10.3519L11.6481 2.10192C11.5631 2.01672 11.462 1.94913 11.3508 1.90301C11.2396 1.85689 11.1204 1.83315 11 1.83315C10.8796 1.83315 10.7604 1.85689 10.6492 1.90301C10.538 1.94913 10.437 2.01672 10.3519 2.10192L2.10195 10.3519C1.97379 10.4801 1.88651 10.6434 1.85116 10.8212C1.81581 10.999 1.83396 11.1833 1.90332 11.3508C1.97269 11.5182 2.09015 11.6614 2.24086 11.7621C2.39157 11.8628 2.56876 11.9166 2.75003 11.9167ZM11 4.04617L16.5 9.54617V13.75L16.5009 18.3333H5.50003V9.54617L11 4.04617Z" fill="#A25CBF"/>
<path d="M11 16.5C14.3944 16.5 15.4925 13.2559 15.5375 13.1184L13.7958 12.5492C13.7885 12.5703 13.0799 14.6667 11 14.6667C8.94846 14.6667 8.23163 12.6308 8.20321 12.5437L6.46246 13.1184C6.50738 13.2559 7.60555 16.5 11 16.5Z" fill="#A25CBF"/>
</svg>
