<svg width="424" height="103" viewBox="0 0 424 103" fill="none" xmlns="http://www.w3.org/2000/svg">
<path d="M130.1 79.675C128.45 79.675 127.325 78.925 126.725 77.425L107.375 26.5C107.775 26.3 108.25 26.15 108.8 26.05C109.35 25.9 109.85 25.825 110.3 25.825C111.7 25.825 112.875 26.175 113.825 26.875C114.825 27.525 115.55 28.45 116 29.65L129.725 67.975L128.375 71.8L128.975 72.025L144.2 29.65C144.65 28.45 145.375 27.525 146.375 26.875C147.375 26.175 148.575 25.825 149.975 25.825C150.825 25.825 151.8 26.05 152.9 26.5L133.55 77.425C133.3 78.125 132.875 78.675 132.275 79.075C131.675 79.475 130.95 79.675 130.1 79.675ZM163.126 35.2C161.726 35.2 160.551 34.75 159.601 33.85C158.651 32.95 158.176 31.825 158.176 30.475C158.176 29.125 158.651 28.025 159.601 27.175C160.551 26.275 161.726 25.825 163.126 25.825C164.476 25.825 165.626 26.275 166.576 27.175C167.526 28.025 168.001 29.125 168.001 30.475C168.001 31.825 167.526 32.95 166.576 33.85C165.626 34.75 164.476 35.2 163.126 35.2ZM159.826 45.625C159.826 43.975 160.351 42.775 161.401 42.025C162.501 41.225 164.151 40.825 166.351 40.825V74.875C166.351 76.525 165.801 77.75 164.701 78.55C163.651 79.3 162.026 79.675 159.826 79.675V45.625ZM194.812 46.6C192.012 46.6 189.687 47.45 187.837 49.15C185.987 50.8 185.062 52.825 185.062 55.225V74.875C185.062 76.525 184.512 77.75 183.412 78.55C182.362 79.3 180.737 79.675 178.537 79.675V46.375C178.537 42.675 180.637 40.825 184.837 40.825V45.4C184.037 46.25 183.487 47 183.187 47.65L183.487 47.95C186.687 43.2 190.687 40.825 195.487 40.825C197.287 40.825 198.662 41.275 199.612 42.175C200.562 43.025 201.037 44.075 201.037 45.325C201.037 46.225 200.812 47.025 200.362 47.725C198.962 46.975 197.112 46.6 194.812 46.6ZM221.953 79.675C218.403 79.675 215.753 78.675 214.003 76.675C212.253 74.625 211.378 71.95 211.378 68.65V46.75H204.403C204.403 45.05 204.778 43.75 205.528 42.85C206.278 41.95 207.303 41.5 208.603 41.5H211.453V34.375C211.453 32.725 211.978 31.525 213.028 30.775C214.128 29.975 215.753 29.575 217.903 29.575V41.5H227.878C227.878 45 226.303 46.75 223.153 46.75H217.978V68.425C217.978 70.425 218.328 71.85 219.028 72.7C219.778 73.5 221.103 73.9 223.003 73.9C224.753 73.9 226.403 73.45 227.953 72.55C228.603 73.2 228.928 74.075 228.928 75.175C228.928 76.375 228.303 77.425 227.053 78.325C225.803 79.225 224.103 79.675 221.953 79.675ZM267.888 74.125C267.888 77.825 265.788 79.675 261.588 79.675V74.875C262.038 74.425 262.563 73.75 263.163 72.85L262.863 72.55C261.363 74.7 259.463 76.425 257.163 77.725C254.913 79.025 252.438 79.675 249.738 79.675C247.038 79.675 244.638 79.1 242.538 77.95C240.488 76.8 238.888 75.2 237.738 73.15C236.638 71.1 236.088 68.8 236.088 66.25V45.625C236.088 43.975 236.638 42.775 237.738 42.025C238.838 41.225 240.488 40.825 242.688 40.825V65.95C242.688 68.35 243.388 70.275 244.788 71.725C246.238 73.175 248.363 73.9 251.163 73.9C253.013 73.9 254.713 73.525 256.263 72.775C257.813 71.975 259.038 70.925 259.938 69.625C260.888 68.275 261.363 66.825 261.363 65.275V45.625C261.363 43.975 261.888 42.775 262.938 42.025C264.038 41.225 265.688 40.825 267.888 40.825V74.125ZM281.291 79.675C279.791 79.375 278.616 78.75 277.766 77.8C276.916 76.8 276.491 75.6 276.491 74.2C276.491 73.25 276.716 72.25 277.166 71.2L295.091 28.075C295.691 26.575 296.841 25.825 298.541 25.825C300.141 25.825 301.266 26.575 301.916 28.075L319.841 71.2C320.291 72.25 320.516 73.25 320.516 74.2C320.516 75.55 320.091 76.725 319.241 77.725C318.391 78.725 317.216 79.375 315.716 79.675L309.266 64H287.741L281.291 79.675ZM307.091 57.925L297.416 33.4L296.816 33.625L298.166 37.075L289.916 57.925H307.091ZM345.398 46.6C342.598 46.6 340.273 47.45 338.423 49.15C336.573 50.8 335.648 52.825 335.648 55.225V74.875C335.648 76.525 335.098 77.75 333.998 78.55C332.948 79.3 331.323 79.675 329.123 79.675V46.375C329.123 42.675 331.223 40.825 335.423 40.825V45.4C334.623 46.25 334.073 47 333.773 47.65L334.073 47.95C337.273 43.2 341.273 40.825 346.073 40.825C347.873 40.825 349.248 41.275 350.198 42.175C351.148 43.025 351.623 44.075 351.623 45.325C351.623 46.225 351.398 47.025 350.948 47.725C349.548 46.975 347.698 46.6 345.398 46.6ZM372.539 79.675C368.989 79.675 366.339 78.675 364.589 76.675C362.839 74.625 361.964 71.95 361.964 68.65V46.75H354.989C354.989 45.05 355.364 43.75 356.114 42.85C356.864 41.95 357.889 41.5 359.189 41.5H362.039V34.375C362.039 32.725 362.564 31.525 363.614 30.775C364.714 29.975 366.339 29.575 368.489 29.575V41.5H378.464C378.464 45 376.889 46.75 373.739 46.75H368.564V68.425C368.564 70.425 368.914 71.85 369.614 72.7C370.364 73.5 371.689 73.9 373.589 73.9C375.339 73.9 376.989 73.45 378.539 72.55C379.189 73.2 379.514 74.075 379.514 75.175C379.514 76.375 378.889 77.425 377.639 78.325C376.389 79.225 374.689 79.675 372.539 79.675ZM402.499 79.675C399.449 79.675 396.724 79.1 394.324 77.95C391.924 76.75 390.049 75.125 388.699 73.075C387.349 70.975 386.674 68.625 386.674 66.025V54.925C386.674 52.275 387.374 49.875 388.774 47.725C390.224 45.575 392.149 43.9 394.549 42.7C396.999 41.45 399.649 40.825 402.499 40.825C405.349 40.825 407.949 41.425 410.299 42.625C412.699 43.825 414.574 45.475 415.924 47.575C417.324 49.675 418.024 52.05 418.024 54.7V59.5C418.024 60.3 417.724 60.975 417.124 61.525C416.524 62.075 415.799 62.35 414.949 62.35H393.049V65.725C393.049 68.275 393.849 70.325 395.449 71.875C397.099 73.425 399.449 74.2 402.499 74.2C405.549 74.2 407.874 73.525 409.474 72.175C411.074 70.825 411.874 69 411.874 66.7C413.374 66.6 414.624 66.9 415.624 67.6C416.674 68.25 417.199 69.225 417.199 70.525C417.199 72.125 416.499 73.625 415.099 75.025C413.749 76.425 411.949 77.55 409.699 78.4C407.449 79.25 405.049 79.675 402.499 79.675ZM411.949 57.25V54.7C411.949 52.2 411.074 50.175 409.324 48.625C407.624 47.025 405.349 46.225 402.499 46.225C399.649 46.225 397.349 47.025 395.599 48.625C393.899 50.175 393.049 52.2 393.049 54.7V57.25H411.949Z" fill="black"/>
<g filter="url(#filter0_d_209:82)">
<path fill-rule="evenodd" clip-rule="evenodd" d="M46.1772 53.3336C46.7982 48.0049 43.2258 42.0212 46.1699 37.483C48.6319 33.6877 54.7169 32.4196 58.8263 33.8351C63.5511 35.4626 63.5028 44.2535 68.4367 45.153C73.8319 46.1366 78.3096 37.1159 83.6434 38.3594C87.8779 39.3467 89.3149 45.5705 89.3469 50.0282C89.3797 54.5839 83.7047 57.9887 83.8173 62.5399C83.9271 66.9782 91.3254 69.657 89.9381 73.925C88.5945 78.0587 81.5591 76.3764 78.3627 79.321C75.4276 82.0249 75.9427 87.4214 72.7336 89.7744C69.5995 92.0723 65.092 92.9191 61.5628 91.639C57.8749 90.3013 57.1507 84.9964 53.8321 82.9184C50.9291 81.1006 47.0221 81.9839 43.8962 80.5766C39.7973 78.7313 32.8012 78.0117 32.6717 73.3919C32.523 68.0873 40.3588 66.0273 43.3633 61.565C45.0046 59.1272 45.8398 56.2285 46.1772 53.3336Z" fill="#14C9D2"/>
</g>
<g filter="url(#filter1_d_209:82)">
<path fill-rule="evenodd" clip-rule="evenodd" d="M73.8352 9.89683C76.9922 9.79351 80.0818 11.151 82.5871 12.8343C84.9443 14.4181 85.5274 17.3248 87.6282 19.1641C89.8638 21.1215 94.36 21.2848 95.2666 23.9354C96.1819 26.6116 92.2846 28.9127 91.9113 31.6869C91.544 34.4162 93.4236 37.034 93.1358 39.7707C92.7784 43.1685 93.4412 47.8611 90.0351 49.5255C86.4067 51.2984 82.1257 46.7179 78.0011 47.166C74.3593 47.5616 72.1877 51.6247 68.5278 51.862C64.9232 52.0957 60.755 50.9303 58.5477 48.4271C56.2102 45.7761 58.4428 41.6467 56.8398 38.6067C55.4273 35.9278 49.9704 35.1661 50.0001 32.2162C50.0316 29.0919 56.0017 28.2407 56.9745 25.2342C58.0047 22.0504 53.4105 18.3243 55.405 15.5125C57.2267 12.9442 62.1067 14.3921 65.3701 13.3977C68.3502 12.4897 70.6816 10 73.8352 9.89683Z" fill="#FCF5A4"/>
</g>
<g filter="url(#filter2_d_209:82)">
<path fill-rule="evenodd" clip-rule="evenodd" d="M38.4778 15.5112C42.6459 13.4496 45.3457 7.9609 50.0159 8.00021C53.9214 8.03308 57.6675 11.9554 58.543 15.6801C59.5497 19.9626 53.1263 24.0894 54.76 28.1826C56.5466 32.6585 65.192 31.7152 66.7607 36.2686C68.0062 39.8835 64.1409 43.8986 60.91 46.0332C57.608 48.2148 52.4964 45.609 49.2347 47.8478C46.0539 50.031 47.5353 56.7985 43.784 57.7883C40.1508 58.747 38.1123 52.7212 34.4855 51.7397C31.1552 50.8384 27.4646 53.7766 24.2628 52.5056C21.1357 51.2642 18.4282 48.3148 17.7232 45.0855C16.9865 41.7109 20.5133 38.6606 20.487 35.21C20.4639 32.1915 18.0084 29.7058 17.5831 26.716C17.0253 22.7955 14.3039 17.2548 17.6077 14.9709C21.4012 12.3486 26.536 17.1973 31.179 17.3175C33.7153 17.3832 36.2134 16.6313 38.4778 15.5112Z" fill="#A25CBF"/>
</g>
<g filter="url(#filter3_d_209:82)">
<path fill-rule="evenodd" clip-rule="evenodd" d="M58.3581 64.9379C57.4026 69.7652 49.2716 70.8352 48.0206 75.6016C46.7697 80.3674 49.5307 79.2612 47.6512 83.8348C45.7717 88.4085 44.9206 88.3152 40.5769 89.1498C36.6465 89.905 36.3068 83.6547 32.3742 82.9954C29.0711 82.4417 30.062 88.2604 26.8023 87.5111C23.1685 86.6757 24.3927 86.9209 21.2685 84.9537C18.0917 82.9533 18.4865 81.0806 16.3677 78.0361C13.8247 74.3822 4.6515 73.646 5.91283 69.3734C7.35443 64.4903 11.2472 64.9086 13.2225 60.1992C15.4276 54.942 5.03433 50.856 8.67802 46.4036C11.8804 42.4905 14.5956 47.7298 19.5652 46.4676C24.3394 45.2551 26.6086 37.8821 31.5306 37.8455C36.2076 37.8107 36.0587 52.7521 39.7274 55.5257C43.086 58.0648 52.4023 54.1989 55.0567 57.4282C57.8123 60.7807 59.1978 60.6958 58.3581 64.9379Z" fill="url(#paint0_radial_209:82)"/>
</g>
<path d="M58.2044 16.8913C58.4836 16.8908 58.7602 16.9453 59.0184 17.0518C59.2765 17.1583 59.5112 17.3146 59.7089 17.5118L80.7464 38.5493C81.1448 38.9478 81.3686 39.4882 81.3686 40.0517C81.3686 40.6152 81.1448 41.1556 80.7464 41.5541C78.7064 43.594 76.1904 44.053 74.3586 44.053C73.6064 44.053 72.9349 43.9765 72.4036 43.8873L59.0841 57.2068C59.4348 58.6195 59.6623 60.06 59.7641 61.512C59.9596 64.4955 59.6281 68.6818 56.7041 71.6058C56.3056 72.0042 55.7652 72.228 55.2018 72.228C54.6383 72.228 54.0979 72.0042 53.6994 71.6058L41.6761 59.5868L28.1526 73.1103C27.3239 73.939 22.9719 76.9438 22.1431 76.115C21.3144 75.2863 24.3191 70.93 25.1479 70.1055L38.6714 56.5821L26.6524 44.5588C26.254 44.1603 26.0302 43.6199 26.0302 43.0564C26.0302 42.493 26.254 41.9525 26.6524 41.5541C29.5764 38.6301 33.7626 38.2943 36.7461 38.494C38.1982 38.5958 39.6387 38.8233 41.0514 39.1741L54.3709 25.8588C54.2597 25.2116 54.2028 24.5562 54.2009 23.8995C54.2009 22.0721 54.6599 19.556 56.7041 17.5118C57.1024 17.1146 57.6419 16.8914 58.2044 16.8913ZM58.7229 25.8673V25.8588V25.8673ZM58.7229 25.8588V25.8673C58.8456 26.2412 58.8621 26.6418 58.7706 27.0245C58.679 27.4072 58.483 27.7569 58.2044 28.0348L43.1806 43.0543C42.9015 43.3323 42.5506 43.5271 42.1671 43.6172C41.7836 43.7073 41.3826 43.6889 41.0089 43.5643H41.0004L40.9409 43.5473C40.5366 43.4262 40.1283 43.3185 39.7169 43.2243C38.6478 42.9749 37.5606 42.8101 36.4656 42.7313C34.6721 42.6123 32.9126 42.7653 31.4719 43.3688L54.8894 66.7821C55.4886 65.3371 55.6416 63.5818 55.5226 61.7883C55.4144 60.2699 55.1407 58.7678 54.7066 57.3088L54.6896 57.2535V57.2493C54.5641 56.875 54.5454 56.4732 54.6355 56.0888C54.7255 55.7045 54.9209 55.3528 55.1996 55.0733L70.2276 40.0495C70.517 39.7584 70.8846 39.5573 71.2858 39.4706C71.6871 39.3838 72.1048 39.4152 72.4886 39.5608L72.8966 39.6543C73.2664 39.7266 73.7806 39.7988 74.3586 39.7988C74.8431 39.7988 75.3361 39.7521 75.8164 39.6288L58.6251 22.4418C58.5019 22.9221 58.4551 23.4193 58.4551 23.8995C58.4572 24.5599 58.5458 25.2172 58.7186 25.8546L58.7229 25.8588Z" fill="black"/>
<defs>
<filter id="filter0_d_209:82" x="27.7467" y="33.2722" width="67.2873" height="68.8099" filterUnits="userSpaceOnUse" color-interpolation-filters="sRGB">
<feFlood flood-opacity="0" result="BackgroundImageFix"/>
<feColorMatrix in="SourceAlpha" type="matrix" values="0 0 0 0 0 0 0 0 0 0 0 0 0 0 0 0 0 0 127 0" result="hardAlpha"/>
<feOffset dy="4.92271"/>
<feGaussianBlur stdDeviation="2.46136"/>
<feComposite in2="hardAlpha" operator="out"/>
<feColorMatrix type="matrix" values="0 0 0 0 0 0 0 0 0 0 0 0 0 0 0 0 0 0 0.25 0"/>
<feBlend mode="normal" in2="BackgroundImageFix" result="effect1_dropShadow_209:82"/>
<feBlend mode="normal" in="SourceGraphic" in2="effect1_dropShadow_209:82" result="shape"/>
</filter>
<filter id="filter1_d_209:82" x="45.4595" y="9.8913" width="54.4864" height="51.0811" filterUnits="userSpaceOnUse" color-interpolation-filters="sRGB">
<feFlood flood-opacity="0" result="BackgroundImageFix"/>
<feColorMatrix in="SourceAlpha" type="matrix" values="0 0 0 0 0 0 0 0 0 0 0 0 0 0 0 0 0 0 127 0" result="hardAlpha"/>
<feOffset dy="4.54054"/>
<feGaussianBlur stdDeviation="2.27027"/>
<feComposite in2="hardAlpha" operator="out"/>
<feColorMatrix type="matrix" values="0 0 0 0 0 0 0 0 0 0 0 0 0 0 0 0 0 0 0.25 0"/>
<feBlend mode="normal" in2="BackgroundImageFix" result="effect1_dropShadow_209:82"/>
<feBlend mode="normal" in="SourceGraphic" in2="effect1_dropShadow_209:82" result="shape"/>
</filter>
<filter id="filter2_d_209:82" x="11.5652" y="8" width="59.8696" height="58.7609" filterUnits="userSpaceOnUse" color-interpolation-filters="sRGB">
<feFlood flood-opacity="0" result="BackgroundImageFix"/>
<feColorMatrix in="SourceAlpha" type="matrix" values="0 0 0 0 0 0 0 0 0 0 0 0 0 0 0 0 0 0 127 0" result="hardAlpha"/>
<feOffset dy="4.43478"/>
<feGaussianBlur stdDeviation="2.21739"/>
<feComposite in2="hardAlpha" operator="out"/>
<feColorMatrix type="matrix" values="0 0 0 0 0 0 0 0 0 0 0 0 0 0 0 0 0 0 0.25 0"/>
<feBlend mode="normal" in2="BackgroundImageFix" result="effect1_dropShadow_209:82"/>
<feBlend mode="normal" in="SourceGraphic" in2="effect1_dropShadow_209:82" result="shape"/>
</filter>
<filter id="filter3_d_209:82" x="0.941979" y="37.8455" width="62.5125" height="61.0724" filterUnits="userSpaceOnUse" color-interpolation-filters="sRGB">
<feFlood flood-opacity="0" result="BackgroundImageFix"/>
<feColorMatrix in="SourceAlpha" type="matrix" values="0 0 0 0 0 0 0 0 0 0 0 0 0 0 0 0 0 0 127 0" result="hardAlpha"/>
<feOffset dy="4.85245"/>
<feGaussianBlur stdDeviation="2.42623"/>
<feComposite in2="hardAlpha" operator="out"/>
<feColorMatrix type="matrix" values="0 0 0 0 0 0 0 0 0 0 0 0 0 0 0 0 0 0 0.25 0"/>
<feBlend mode="normal" in2="BackgroundImageFix" result="effect1_dropShadow_209:82"/>
<feBlend mode="normal" in="SourceGraphic" in2="effect1_dropShadow_209:82" result="shape"/>
</filter>
<radialGradient id="paint0_radial_209:82" cx="0" cy="0" r="1" gradientUnits="userSpaceOnUse" gradientTransform="translate(31.812 64.2114) rotate(-160.593) scale(38.2948 37.4245)">
<stop stop-color="#BADF92"/>
<stop offset="1" stop-color="#AADE71"/>
</radialGradient>
</defs>
</svg>
